<?xml version="1.0"?>
<svg xmlns:rdf="http://www.w3.org/1999/02/22-rdf-syntax-ns#" xmlns="http://www.w3.org/2000/svg" xmlns:cc="http://web.resource.org/cc/" xmlns:xlink="http://www.w3.org/1999/xlink" xmlns:dc="http://purl.org/dc/elements/1.1/" xmlns:svg="http://www.w3.org/2000/svg" id="Layer_1" style="enable-background:new 0 0 210.487 213.481" xml:space="preserve" viewBox="0 0 210.487 213.481" version="1.1" y="0px" x="0px">
<path clip-rule="evenodd" d="m210.32 77.04c-5.628-0.98-8.727-5.872-10.729-10.996-2.286-5.846-6.149-10.982-9.959-16.179-3.824-5.216-6.952-8.424-13.449-9.935-5.562-1.293-13.272-1.202-18.141 1.56-3.376 1.87-7.499 7.101-9.373 10.509-3.195 5.809-5.551 12.078-7.987 18.225-2.579 6.506-6.181 9.854-11.361 14.266-2.249 1.915-6.15 10.876-10.023 9.475 0.324-4.415 4.74-5.223 6.031-8.446 1.86-4.645 5.291-8.485 7.647-12.869 4.893-9.103 4.505-21.688 3-31.651-1.579-10.457-10.27-17.037-14.216-26.129-1.421-3.274-4.042-4.653-6.996-7.622-1.872-1.881-7.404-10.305-9.049-6.072-1.57 4.041-6.697 6.747-10.661 7.713-2.604 0.635-5.218-0.371-7.542 1.338-2.188 1.61-5.756 1.941-8.392 2.402-10.254 1.794-22.058 3.164-23.457 16.131-0.579 5.369 0.949 10.751 3.053 15.639 1.282 2.977 2.815 5.841 4.457 8.633 1.546 2.628 3.998 3.584 6.037 5.828 1.85 2.035 3.301 4.39 4.676 6.759 1.607 2.77 3.884 1.665 5.678 4.226 2.775 3.963 6.878 7.937 6.8 13.142-3.59-1.283-4.575-6.016-6.488-8.892-2.722-4.091-6.261-7.201-10.893-8.947-8.58-3.233-18.21-4.089-27.309-4.165-8.572-0.072-17.734 0.531-25.774 3.752-4.468 1.79-8.12 5.003-12.326 7.275-1.598 1.888-3.728 3.125-3.568 6.073 1.571 0.907 2.461 4.937 2.878 6.517 2.693 10.216 0.771 20.946 2.071 31.32 1.278 10.226 6.106 22.682 17.97 22.653 18.441-0.045 30.314-19.274 48.811-18.536-2.666 2.521-9.084 2.666-12.509 4.613-5.375 3.057-10.131 7.116-14.655 11.298-3.848 3.556-7.206 6.247-8.941 11.315-1.876 5.479-2.973 11.286-3.359 17.059-0.649 9.685 1.102 17.743 3.494 26.819 0.741 2.813 1.463 5.637 2.37 8.403 0.887 2.709 2.776 2.106 5.219 3.17 2.198 0.958 3.702-0.224 5.831 0.98 2.389 1.352 4.625 2.669 7.456 2.791 2.521 3.244 7.026 3.466 10.742 4.154 4.99 0.924 9.724 3.704 14.86 2.579 9.735-2.132 25.241 0.906 24.062-13.911-0.937-11.779-5.242-23.029-5.879-34.84-0.344-6.376 1.401-11.834 2.556-17.994 0.7-3.733-1.878-10.302 2.601-12.256-0.71 15.593-2.787 32.401 4.782 46.753 2.941 5.576 7.093 10.426 12.171 14.164 2.54 1.869 5.278 3.459 8.129 4.801 1.928 0.907 8.345 2.128 6.588 4.04-0.284 0.308 8.842 0.957 9.954 0.982 4.637 0.104 9.274 0.141 13.913 0.153 2.656 0.007 5.02 0.418 7.706 0.198 2.824-0.231 4.448-3.395 5.649-5.767 0.261-0.725 0.675-1.348 1.242-1.868 1.674-1.156 1.268-1.642 2.267-3.685 1.644-3.364 4.472-5.97 6.841-8.806 4.889-5.85 9.361-13.132 11.414-20.497 2.199-7.888 1.038-15.334-4.675-21.328-3.849-4.037-9.804-4.992-15.815-5.556-9.052-0.85-17.161-1.141-25.3-5.634-2.893-1.597-5.692-3.406-8.926-4.22-2.659-0.669-5.81-1.487-6.21-4.708 9.637 1.945 17.785 5.253 27.885 4.545 8.467-0.594 17.057-2.653 24.282-7.24 3.432-2.179 6.535-4.807 9.828-7.18 3.054-2.201 4.819-6.963 6.697-10.27 4.29-7.496 7.24-17.22 6.33-26.01m-122.58 6.862c0.774 2.585 6.286 5.148 4.117 8.232-2.438-2.438-5.019-4.583-5.489-8.232h1.372m60.832 49.858c10.522 5.798 21.205 4.554 32.494 6.736 8.41 1.625 14.277 8.21 14.14 16.87-0.124 7.875-4.551 22.005-12.328 25.793 0.665 2.806-4.621 6.923-6.062 9.433-1.465 2.554-4.381 4.424-5.197 5.032-1.132 0.977-1.939 4.203-2.462 5.662-0.733-0.917-4.358 0.066-5.191 0.089-3.911 0.104-7.829 0.023-11.729-0.302-6.27-0.522-12.543-1.665-18.451-3.872-10.687-3.993-18.902-11.843-23.21-22.427-4.693-11.528-4.165-24.028-3.345-36.203 0.152-2.257 0.36-4.817 1.547-6.812 3.029 1.34 7.178 0.75 9.562 3.367 0.797 0.875 5.131 5.415 4.619 1.208-1.692-1.89-5.169-1.756-5.946-4.574 2.186-0.769 3.581-2.793 5.946-3.201 0.987 2.724 0.78 6.68 3.201 8.689 2.775-1.083 0.421-3.503-0.561-4.24-2.307-1.729-0.966-9.251 0.103-11.31 1.95 0.412 4.091 0.907 5.663 2.228 2.007 1.686 2.944 1.485 5.55 2.259 4.17 1.22 7.9 3.48 11.67 5.56m-21.49-12.81c3.703-0.351 5.814 0.893 7.775 2.287-1.65 2.58-6.57-0.24-7.78-2.29zm56.71 0c-12.513 5.618-27.745 7.163-40.88 2.796-3.108-1.034-5.424-2.819-8.52-3.034-2.728-0.19-7.626-1.32-6.993-4.013 1.351-5.746 6.377-8.706 9.738-13.131-4.77 2.171-8.448 5.968-10.646 10.708-1.352 2.916-2.163 6.06-2.632 9.231-0.608 4.103-1.007 5.178-4.49 7.625-5.917 4.158-12.312 0.672-18.822 1.253-3.648 0.325-14.081 2.183-13.267 7.776 4.206-4.151 8.469-6.883 14.638-6.404-0.877 6.137-0.762 12.226-2.172 18.306-1.483 6.395-2.016 10.657-0.573 16.915 1.448 6.256 1.405 12.733 2.856 19.008 1.162 5.023 5.562 14.581 0.586 18.583-3.644 2.932-8.378 4.042-12.957 4.034-5.018-0.009-10.132 1.945-14.807-0.241-4.721-2.208-10.273-0.373-14.732-3.525-3.717-2.627-8.499-4.938-13.019-5.912-2.726-0.587-5.333 0.009-6.253-2.378-0.848-2.2-2.302-2.999-2.938-5.632-1.274-5.279-2.298-10.626-2.942-16.02-1.27-10.637-1.887-24.219 5.035-33.213 6.322-8.217 14.66-15.262 24.338-19.103 5.392-2.139 11.111-3.361 16.877-3.899 3.823-0.357 3.283 2.889 3.315 6.171 0.033 3.396-0.446 6.98-1.826 10.11 2.877 0.455 3.272-6.08 3.659-7.776 1.957 1.989 4.059 5.175 7.318 3.659-0.088-1.489-3.908-1.091-4.789-2.987-0.519-1.117-1.179-1.789-2.529-1.588-0.239-2.894-0.405-5.809-0.908-8.672-0.828-4.712-3.141-8.123-6.22-11.67-2.922-3.366-3.36-6.43-7.966-6.187-0.294 0.623 1.158 3.151 0.971 3.209 2.674-0.832 6.791 4.227 8.307 6.724 2.194 3.614 0.416 3.832-3.021 4.778-3.392 0.934-6.897 1.296-10.374 1.756-2.524 0.333-5.066-0.268-7.252 1.409-3.092 2.372-5.913 4.203-9.442 5.928-6.073 2.969-11.916 6.356-18.024 9.274-2.236 1.068-4.551 1.936-7.044 2.127-2.831 0.217-4.629-1.673-7.424-1.352-6.139 0.706-6.066-8.393-8.903-11.441 0.346-2.255-0.209-4.115-1.23-6.09-1.221-2.362-0.517-6.434-0.801-9.174-0.276-2.663-0.565-5.432 0.051-8.073 0.76-3.256-0.801-6.893-1.31-10.333-0.601-4.061-4.477-10.419-3.572-14.357 0.917-3.986 8.37-6.229 11.567-7.667 12.306-5.533 26.043-7.478 39.43-5.555 12.17 1.749 21.988 5.308 27.527 16.768 1.21 2.503 2.384 5.057 4.035 7.309 1.51 2.061 5.83 5.646 2.925 7.425-2.211 1.355-4.551 2.543-7.061 3.235-2.437 0.672-7.187-0.807-8.897 1.354 4.259 3.332 15.887-2.834 19.791-5.204 2.996-1.818 5.723-4.076 8.054-6.694 1.691-1.899 3-5.9 6.002-5.484-0.395-1.606-0.395-2.969 0-4.575-1.875-0.37-2.504 0.821-2.753 2.431-0.519 3.366-3.229 5.671-5.512 8.059-4.354 4.554-6.898-4.012-8.748-7.032-3.251-5.308-5.949-10.914-10.432-15.35-5.068-5.015-10.419-9.755-14.636-15.55-5.393-7.415-9.106-22.218-1.89-29.641 3.831-3.941 9.396-4.43 14.564-4.993 4.728-0.515 9.891-3.405 14.248-3.405 4.016-0.947 7.507-1.822 11.223-4.218 2.119-1.367 4.254-2.72 6.679-3.483 2.747 2.284 5.299 4.801 7.701 7.442 8.015 8.812 16.293 20.162 18.071 32.247 1.864 12.671-0.173 25.469-7.196 36.323-1.66 2.565-8.359 12.703-11.091 10.328-1.829-1.59-3.683-3.383-4.707-5.623-1.474-3.223 1.441-6.301-3.233-7.533-0.562 3.123 2.698 5.838 1.829 8.692-2.563-1.029-6.874-1.133-8.692 1.372 3.226-0.34 6.401-0.871 9.606 0 2.956 3.138 5.758 6.45 9.103 9.193 1.708 1.4 3.55 2.638 5.535 3.613-0.632 0.816-0.729 1.663-0.168 2.533 1.338 2.074 3.208 3.356 2.454 6.158 4.064-2.087-1.294-5.867-1.372-8.233 3.91 0.944 7.99 0.848 11.893 1.83-1.509-4.3-11.384-1.516-14.491-4.651-2.671-2.697 4.247-7.215 5.196-9.118 2.248-4.506 6.612-5.729 9.451-9.462 9.997-13.145 10.875-42.207 34.329-38.183 3.524 0.604 7.237 1.692 10.3 3.585 3.323 2.054 5.546 7.577 8.071 10.677 2.364 2.901 5.809 6.976 7.009 10.551 0.594 1.77 0.854 3.642 0.971 5.498 1.939 2.126 4.019 4.123 6.212 5.985 2.172 1.843 3.582 1.768 3.028 4.791-0.498 2.723-1.083 5.431-1.788 8.108-1.168 4.438-2.666 8.809-4.701 12.929-3.87 7.77-9.82 14.39-17.86 18m-104.74-2.29c0.608-0.915 2.03-1.018 3.201-1.371 0.298 1.83-1.738 1.31-3.201 1.37z" fill-rule="evenodd"/>
<path clip-rule="evenodd" d="m84.537 98.997c-0.219 2.067-1.865 2.709-2.745 4.115-0.223 2.055 0.233 3.428 0.458 5.032-4.141-1.98-1.029-8.142 2.287-9.143z" fill-rule="evenodd"/>
<path clip-rule="evenodd" d="m117.47 109.06c-0.456 0.612-1.238 0.899-1.374 1.83-0.13 7.119-3.657 12.589-10.52 12.809-8.758 0.277-15.299-12.321-8.691-19.211 4.005-3.125 9.823-5.01 14.638-1.83 2.066 1.364 3.062 3.778 4.117 5.946 0.13 0.61 1.14 0.37 1.82 0.45zm-3.2 4.12c0.099-1.812-1.471-3.326-0.456-5.488-2.204-6.125-16.245-7.265-16.926 0.915 1.254 1.882 5.001 1.536 6.862 0.456 0.748-1.385 1.09-3.179 2.287-4.117 0.439 1.848 1.223 3.352 2.285 4.575 1.08 0.598 3.162 0.193 4.117 0.916-2.52 1.297-4.05 6.354-2.743 8.689-2.178-3.491-8.567-3.547-9.147 1.372 6.82 3.98 13.35-0.52 13.72-7.32zm-16.01 5.94c5.723-0.993 4.035-9.823-2.288-8.689-1.552 3.66 1.311 6.11 2.288 8.69z" fill-rule="evenodd"/>
<metadata><rdf:RDF><cc:Work><dc:format>image/svg+xml</dc:format><dc:type rdf:resource="http://purl.org/dc/dcmitype/StillImage"/><cc:license rdf:resource="http://creativecommons.org/licenses/publicdomain/"/><dc:publisher><cc:Agent rdf:about="http://openclipart.org/"><dc:title>Openclipart</dc:title></cc:Agent></dc:publisher><dc:title>periwinkle flower top view</dc:title><dc:date>2007-10-13T15:35:41</dc:date><dc:description>Nature Drawing and Design (1904) by Frank Steeley</dc:description><dc:source>http://openclipart.org/detail/6862/periwinkle-flower-top-view-by-johnny_automatic-6862</dc:source><dc:creator><cc:Agent><dc:title>johnny_automatic</dc:title></cc:Agent></dc:creator><dc:subject><rdf:Bag><rdf:li>clip art</rdf:li><rdf:li>clipart</rdf:li><rdf:li>externalsource</rdf:li><rdf:li>flower</rdf:li><rdf:li>image</rdf:li><rdf:li>media</rdf:li><rdf:li>periwinkle</rdf:li><rdf:li>plant</rdf:li><rdf:li>png</rdf:li><rdf:li>public domain</rdf:li><rdf:li>svg</rdf:li></rdf:Bag></dc:subject></cc:Work><cc:License rdf:about="http://creativecommons.org/licenses/publicdomain/"><cc:permits rdf:resource="http://creativecommons.org/ns#Reproduction"/><cc:permits rdf:resource="http://creativecommons.org/ns#Distribution"/><cc:permits rdf:resource="http://creativecommons.org/ns#DerivativeWorks"/></cc:License></rdf:RDF></metadata></svg>
